<?xml version="1.0" standalone="no"?>
<!DOCTYPE svg PUBLIC "-//W3C//DTD SVG 20010904//EN"
 "http://www.w3.org/TR/2001/REC-SVG-20010904/DTD/svg10.dtd">
<svg version="1.0" xmlns="http://www.w3.org/2000/svg"
 width="120.000000pt" height="160.000000pt" viewBox="0 0 120.000000 160.000000"
 preserveAspectRatio="xMidYMid meet">

<g transform="translate(0.000000,160.000000) scale(0.100000,-0.100000)"
fill="#000000" stroke="none">
<path d="M450 1575 c0 -20 -5 -25 -25 -25 -20 0 -25 -5 -25 -25 0 -20 -5 -25
-25 -25 -23 0 -25 -3 -25 -50 0 -47 -2 -50 -25 -50 -24 0 -25 -2 -25 -75 0
-73 1 -75 25 -75 24 0 25 -2 25 -75 0 -73 1 -75 25 -75 20 0 25 -5 25 -25 0
-20 5 -25 25 -25 23 0 25 -3 25 -50 l0 -50 -225 0 -225 0 0 -75 c0 -73 1 -75
25 -75 23 0 25 -3 25 -50 l0 -50 75 0 c73 0 75 -1 75 -25 0 -20 5 -25 25 -25
20 0 25 -5 25 -25 0 -24 2 -25 75 -25 l75 0 0 -75 c0 -73 1 -75 25 -75 20 0
25 -5 25 -25 0 -23 -3 -25 -50 -25 -47 0 -50 -2 -50 -25 0 -20 -5 -25 -25 -25
-23 0 -25 -3 -25 -50 0 -47 2 -50 25 -50 20 0 25 -5 25 -25 l0 -25 100 0 100
0 0 25 c0 23 3 25 50 25 47 0 50 2 50 25 0 23 3 25 50 25 47 0 50 -2 50 -25 0
-20 5 -25 25 -25 23 0 25 -3 25 -50 0 -47 -2 -50 -25 -50 -23 0 -25 -3 -25
-50 0 -47 2 -50 25 -50 20 0 25 -5 25 -25 0 -24 2 -25 75 -25 73 0 75 1 75 25
0 20 5 25 25 25 20 0 25 5 25 25 0 20 5 25 25 25 l25 0 0 125 0 125 -25 0 -25
0 0 150 0 150 25 0 c20 0 25 5 25 25 0 20 5 25 25 25 20 0 25 5 25 25 0 20 5
25 25 25 20 0 25 5 25 25 0 20 5 25 25 25 l25 0 0 175 0 175 -25 0 c-23 0 -25
3 -25 50 0 47 -2 50 -25 50 -20 0 -25 5 -25 25 0 23 -3 25 -50 25 -47 0 -50 2
-50 25 0 24 -2 25 -75 25 l-75 0 0 50 c0 47 -2 50 -25 50 -20 0 -25 5 -25 25
0 20 -5 25 -25 25 -20 0 -25 5 -25 25 0 20 -5 25 -25 25 -20 0 -25 5 -25 25
l0 25 -125 0 -125 0 0 -25z m200 -125 l0 -50 -50 0 -50 0 0 50 0 50 50 0 50 0
0 -50z m150 -200 l0 -50 -50 0 c-47 0 -50 2 -50 25 0 20 5 25 25 25 20 0 25 5
25 25 0 20 5 25 25 25 23 0 25 -3 25 -50z m-150 -50 c0 -47 -2 -50 -25 -50
-23 0 -25 -3 -25 -50 l0 -50 -75 0 -75 0 0 50 c0 47 -2 50 -25 50 -23 0 -25 3
-25 50 l0 50 125 0 125 0 0 -50z m200 -75 c0 -23 -3 -25 -50 -25 -47 0 -50 -2
-50 -25 0 -24 2 -25 75 -25 l75 0 0 -75 0 -75 -75 0 -75 0 0 75 c0 73 -1 75
-25 75 -20 0 -25 -5 -25 -25 0 -20 -5 -25 -25 -25 -23 0 -25 3 -25 50 0 47 2
50 25 50 20 0 25 5 25 25 0 24 2 25 75 25 73 0 75 -1 75 -25z m-750 -250 c0
-20 -5 -25 -25 -25 -20 0 -25 5 -25 25 0 20 5 25 25 25 20 0 25 -5 25 -25z
m500 0 c0 -23 -3 -25 -50 -25 l-50 0 0 -50 c0 -47 -2 -50 -25 -50 -23 0 -25 3
-25 50 0 47 -2 50 -25 50 -23 0 -25 -3 -25 -50 0 -47 -2 -50 -25 -50 -23 0
-25 3 -25 50 l0 50 -100 0 -100 0 0 25 0 25 225 0 225 0 0 -25z m400 -75 c0
-47 -2 -50 -25 -50 -20 0 -25 -5 -25 -25 0 -24 -2 -25 -75 -25 -73 0 -75 -1
-75 -25 0 -20 -5 -25 -25 -25 -23 0 -25 3 -25 50 0 47 2 50 25 50 20 0 25 5
25 25 0 23 3 25 50 25 47 0 50 2 50 25 0 23 3 25 50 25 l50 0 0 -50z m-700
-75 c0 -23 3 -25 50 -25 47 0 50 -2 50 -25 0 -24 -2 -25 -75 -25 -73 0 -75 1
-75 25 0 20 -5 25 -25 25 -20 0 -25 5 -25 25 0 23 3 25 50 25 47 0 50 -2 50
-25z m400 -25 c0 -47 -2 -50 -25 -50 -20 0 -25 -5 -25 -25 0 -23 -3 -25 -50
-25 -47 0 -50 2 -50 25 0 20 -5 25 -25 25 -20 0 -25 5 -25 25 0 20 5 25 25 25
20 0 25 5 25 25 0 24 2 25 75 25 l75 0 0 -50z m200 -175 c0 -20 5 -25 25 -25
23 0 25 -3 25 -50 0 -47 -2 -50 -25 -50 -20 0 -25 -5 -25 -25 l0 -25 -100 0
-100 0 0 75 c0 73 1 75 25 75 20 0 25 5 25 25 0 24 2 25 75 25 73 0 75 -1 75
-25z"/>
</g>
</svg>
